<svg xmlns="http://www.w3.org/2000/svg" width="15.268" height="10.69" viewBox="0 0 15.268 10.69"><defs><style>.a{fill:#fff;}</style></defs><path class="a" d="M14.954-4.409a1.913,1.913,0,0,0-1.346-1.346,44.69,44.69,0,0,0-5.974-.327,46.431,46.431,0,0,0-5.974.315A1.952,1.952,0,0,0,.315-4.409,20.155,20.155,0,0,0,0-.737,20.081,20.081,0,0,0,.315,2.935,1.913,1.913,0,0,0,1.661,4.281a44.771,44.771,0,0,0,5.974.327,46.431,46.431,0,0,0,5.974-.315,1.913,1.913,0,0,0,1.346-1.346,20.161,20.161,0,0,0,.314-3.672,19.132,19.132,0,0,0-.315-3.685ZM6.113,1.552V-3.026L10.087-.737Zm0,0" transform="translate(-0.001 6.082)"/></svg>